<svg height="512" viewBox="0 0 64 64" width="512" xmlns="http://www.w3.org/2000/svg"><g id="Filled_outline" data-name="Filled outline"><path d="m51 55-11-24a11.087 11.087 0 0 1 -1-5v-19h2a2 2 0 0 0 0-4h-18a2 2 0 0 0 0 4h2v19a11.087 11.087 0 0 1 -1 5l-11 24a4.325 4.325 0 0 0 4 6h30a4.325 4.325 0 0 0 4-6z" fill="#ececec"/><path d="m17 61h30a4.325 4.325 0 0 0 4-6l-11-24c-.054-.116-.085-.226-.134-.34a4.923 4.923 0 0 1 -1.866.34c-4.167 0-3.833-4-8-4-2.776 0-4.049 1.774-5.591 2.959a10.959 10.959 0 0 1 -.409 1.041l-11 24a4.325 4.325 0 0 0 4 6z" fill="#f9bb4b"/><circle cx="32" cy="20" fill="#96c3f0" r="3"/><circle cx="33" cy="11" fill="#96c3f0" r="2"/><path d="m20 50h8v6h-8z" fill="#f4f4e6"/><path d="m28 49h-8a1 1 0 0 0 -1 1v6a1 1 0 0 0 1 1h8a1 1 0 0 0 1-1v-6a1 1 0 0 0 -1-1zm-1 6h-6v-4h6z"/><path d="m31 55h7v2h-7z"/><path d="m31 49h7v2h-7z"/><path d="m31 43h7v2h-7z"/><path d="m31 37h7v2h-7z"/><path d="m32 24a4 4 0 1 0 -4-4 4 4 0 0 0 4 4zm0-6a2 2 0 1 1 -2 2 2 2 0 0 1 2-2z"/><path d="m33 14a3 3 0 1 0 -3-3 3 3 0 0 0 3 3zm0-4a1 1 0 1 1 -1 1 1 1 0 0 1 1-1z"/><path d="m51.909 54.583-11-24a10.056 10.056 0 0 1 -.909-4.583v-18h1a3 3 0 0 0 0-6h-18a3 3 0 0 0 0 6h1v18a10.057 10.057 0 0 1 -.909 4.583l-11.006 24.017a5.2 5.2 0 0 0 .422 4.956 5.351 5.351 0 0 0 4.493 2.444h30a5.351 5.351 0 0 0 4.493-2.447 5.2 5.2 0 0 0 .422-4.956zm-28.909-48.583a1 1 0 0 1 0-2h18a1 1 0 0 1 0 2h-2a1 1 0 0 0 -1 1v19a12.939 12.939 0 0 0 .537 3.955 4.518 4.518 0 0 1 -.537.045 4.047 4.047 0 0 1 -3.278-1.691 5.986 5.986 0 0 0 -4.722-2.309 6.569 6.569 0 0 0 -4.056 1.385c.034-.439.056-.893.056-1.385v-19a1 1 0 0 0 -1-1zm26.817 52.461a3.355 3.355 0 0 1 -2.817 1.539h-30a3.355 3.355 0 0 1 -2.817-1.539 3.161 3.161 0 0 1 -.274-3.044l11-24c.134-.29.237-.576.344-.863.259-.211.516-.425.772-.651 1.159-1.02 2.161-1.903 3.975-1.903a4.048 4.048 0 0 1 3.278 1.691 5.986 5.986 0 0 0 4.722 2.309 6.288 6.288 0 0 0 1.294-.14l10.794 23.549a3.171 3.171 0 0 1 -.271 3.052z"/></g></svg>